<?xml version="1.0" encoding="UTF-8"?>
<svg width="128pt" height="128pt" version="1.1" viewBox="0 0 128 128" xmlns="http://www.w3.org/2000/svg">
 <path d="m101.33 32.535v-21.867c0-1.9375-1.0508-3.7227-2.7422-4.6641-1.6953-0.94141-3.7656-0.89062-5.4102 0.13672l-41.375 25.859h-31.656c-3.9258 0.007812-7.6914 1.5703-10.469 4.3477-2.7773 2.7734-4.3398 6.5391-4.3477 10.469v23.703c0.003907 3.3086 1.1133 6.5195 3.1562 9.125 2.0391 2.6055 4.8906 4.4531 8.1055 5.25l3.5547 25.055c0.52344 3.5352 2.3008 6.7656 5.0078 9.1016 2.707 2.332 6.1602 3.6172 9.7344 3.6172h2.1836c4.293-0.003907 8.375-1.8672 11.188-5.1133 2.8125-3.2422 4.0781-7.5508 3.4727-11.801l-2.918-20.422h2.9883l41.375 25.863c0.84766 0.52734 1.8242 0.80469 2.8203 0.80469 0.90234 0 1.793-0.23047 2.582-0.66406 1.6992-0.94141 2.75-2.7305 2.75-4.668v-21.867c8.0898-1.6602 14.949-6.9727 18.586-14.383 3.6367-7.4141 3.6367-16.09 0-23.5-3.6367-7.4141-10.496-12.723-18.586-14.383zm-61.129 78.031c-0.78125 0.91406-1.9258 1.4375-3.1289 1.4336h-2.1836c-2.0586-0.011719-3.8008-1.5195-4.1133-3.5547l-3.293-23.113h10.559l3.1289 21.926c0.17969 1.1914-0.17578 2.4023-0.96875 3.3086zm7.7969-35.898h-27.852c-2.293 0-4.1484-1.8594-4.1484-4.1484v-23.703c0-2.293 1.8555-4.1484 4.1484-4.1484h27.852zm42.668 22.375-32-20.008v-36.738l32-19.992zm10.668-23.312-0.003907-30.129c4.1875 1.4727 7.5742 4.6172 9.3477 8.6875 1.7734 4.0664 1.7734 8.6875 0 12.758-1.7734 4.0664-5.1602 7.2148-9.3477 8.6836z" fill="#ffffff"/>
</svg>
