<?xml version="1.0" encoding="UTF-8"?>
<svg width="128pt" height="128pt" version="1.1" viewBox="0 0 128 128" xmlns="http://www.w3.org/2000/svg">
 <g>
  <path d="m32 122.67h64c4.4648 0 8.6953-2.0117 11.512-5.4766 2.8164-3.4648 3.9219-8.0156 3.0078-12.387-5.3594-25.93-22.316-40.805-46.52-40.805s-41.16 14.875-46.52 40.805c-0.91406 4.3711 0.19141 8.9219 3.0078 12.387 2.8164 3.4648 7.0469 5.4766 11.512 5.4766zm-4.0781-15.703c3.0469-14.734 11.781-32.297 36.078-32.297s33.031 17.562 36.078 32.297c0.28125 1.25-0.03125 2.5664-0.85547 3.5547-0.78906 0.96094-1.9766 1.5078-3.2227 1.4805h-64c-1.2422 0.011719-2.4219-0.55078-3.1992-1.5156-0.82031-0.97656-1.1445-2.2773-0.87891-3.5195z"/>
  <path d="m64 58.668c7.0742 0 13.855-2.8125 18.855-7.8125s7.8125-11.781 7.8125-18.855-2.8125-13.855-7.8125-18.855-11.781-7.8125-18.855-7.8125-13.855 2.8125-18.855 7.8125-7.8125 11.781-7.8125 18.855c0.007813 7.0703 2.8203 13.852 7.8203 18.848 4.9961 5 11.777 7.8125 18.848 7.8203zm0-42.668c4.2422 0 8.3125 1.6875 11.312 4.6875s4.6875 7.0703 4.6875 11.312-1.6875 8.3125-4.6875 11.312-7.0703 4.6875-11.312 4.6875-8.3125-1.6875-11.312-4.6875-4.6875-7.0703-4.6875-11.312c0.007812-4.2422 1.6953-8.3086 4.6914-11.309 3-2.9961 7.0664-4.6836 11.309-4.6914z"/>
 </g>
</svg>
