<?xml version="1.0" encoding="UTF-8"?>
<svg width="1200pt" height="1200pt" version="1.1" viewBox="0 0 1200 1200" xmlns="http://www.w3.org/2000/svg">
 <g>
  <path d="m900 75h-600c-124.09 0-225 100.91-225 225v600c0 124.09 100.91 225 225 225h600c124.09 0 225-100.91 225-225v-600c0-124.09-100.91-225-225-225zm150 825c0 82.727-67.273 150-150 150h-600c-82.727 0-150-67.273-150-150v-600c0-82.727 67.273-150 150-150h600c82.727 0 150 67.273 150 150z"/>
  <path d="m862.5 225h-329.81c-7.5391 0-14.887 2.2891-21.113 6.5234l-76.273 52.012-76.352-53.25c-11.438-7.9844-26.398-8.9609-38.812-2.4727-12.375 6.4492-20.137 19.273-20.137 33.227v451.46c0 20.738 16.762 37.5 37.5 37.5h150v187.5c0 20.738 16.762 37.5 37.5 37.5h150c20.738 0 37.5-16.762 37.5-37.5v-187.5h150c20.738 0 37.5-16.762 37.5-37.5v-450c0-20.699-16.762-37.5-37.5-37.5zm-487.5 107.93 38.586 26.926c12.824 8.9258 29.773 9 42.602 0.22656l88.086-60.078h280.73v225h-450zm450 342.07h-150c-20.738 0-37.5 16.762-37.5 37.5v187.5h-75v-187.5c0-20.738-16.762-37.5-37.5-37.5h-150v-75h450z"/>
 </g>
</svg>
