<?xml version="1.0" encoding="UTF-8"?>
<svg width="128pt" height="128pt" version="1.1" viewBox="0 0 128 128" xmlns="http://www.w3.org/2000/svg">
 <g>
  <path d="m93.227 57.754c1.3672 2.6172 4.6016 3.6328 7.2188 2.2656 2.6172-1.3711 3.6328-4.6016 2.2617-7.2188-4.9531-9.457-13.199-16.766-23.18-20.555-9.9805-3.7852-21.004-3.7852-30.98 0-9.9805 3.7891-18.23 11.098-23.184 20.555-1.3672 2.6172-0.35547 5.8477 2.2617 7.2188 2.6211 1.3672 5.8516 0.35156 7.2188-2.2656 3.7461-7.1445 9.9766-12.672 17.52-15.535s15.871-2.8633 23.414 0c7.543 2.8633 13.777 8.3906 17.52 15.535z"/>
  <path d="m119.81 49.859c2.6094-1.3633 3.6211-4.582 2.2656-7.1914-7.4336-14.211-19.816-25.199-34.805-30.891-14.992-5.6953-31.547-5.6953-46.539 0-14.988 5.6914-27.371 16.68-34.805 30.891-1.3672 2.6172-0.35547 5.8477 2.2656 7.2148 2.6172 1.3711 5.8477 0.35547 7.2148-2.2617 6.2227-11.883 16.586-21.078 29.125-25.836 12.543-4.7617 26.395-4.7617 38.938 0 12.539 4.7578 22.902 13.953 29.125 25.836 1.375 2.6016 4.5938 3.6094 7.2031 2.25z"/>
  <path d="m64 120.48c2.9453 0 5.332-2.3867 5.332-5.332v-21.047c6.4531-1.6328 11.801-6.125 14.52-12.199 2.7148-6.0703 2.5039-13.055-0.58203-18.949-3.4102-6.5391-9.9023-10.902-17.242-11.594-7.3398-0.69141-14.531 2.3867-19.105 8.1719-4.5703 5.7852-5.8984 13.496-3.5234 20.477 2.3711 6.9844 8.1172 12.289 15.27 14.094v21.047c0 2.9453 2.3867 5.332 5.332 5.332zm-11.082-47.406c-0.011719-1.793 0.42578-3.5625 1.2695-5.1445 1.9102-3.6523 5.6953-5.9453 9.8203-5.9453 4.1211 0 7.9062 2.293 9.8164 5.9453 0.83984 1.5781 1.2695 3.3359 1.2578 5.1211 0 6.1211-4.9609 11.082-11.082 11.082s-11.082-4.9609-11.082-11.082z"/>
 </g>
</svg>
