<?xml version="1.0" encoding="UTF-8"?>
<svg width="128pt" height="128pt" version="1.1" viewBox="0 0 128 128" xmlns="http://www.w3.org/2000/svg">
 <g>
  <path d="m20.148 114.67h87.703c3.9258-0.007813 7.6914-1.5703 10.469-4.3477 2.7773-2.7773 4.3398-6.543 4.3477-10.469v-55.703c-0.007813-3.9258-1.5703-7.6914-4.3477-10.469-2.7773-2.7773-6.543-4.3398-10.469-4.3477h-46.328l-9.0898-13.629c-0.98828-1.4805-2.6523-2.3711-4.4336-2.3711h-37.332c-1.418 0-2.7734 0.55859-3.7773 1.5586-1 1.0039-1.5586 2.3594-1.5586 3.7773v81.184c0.007813 3.9258 1.5703 7.6914 4.3477 10.469 2.7773 2.7773 6.543 4.3398 10.469 4.3477zm-4.1484-90.668h29.145l9.0898 13.629c0.98828 1.4844 2.6523 2.3711 4.4336 2.3711h49.184c2.293 0 4.1484 1.8555 4.1484 4.1484v55.703c0 1.1016-0.4375 2.1562-1.2148 2.9336s-1.832 1.2148-2.9336 1.2148h-87.703c-2.293 0-4.1484-1.8555-4.1484-4.1484z"/>
  <path d="m37.332 64h53.336c2.9453 0 5.332-2.3867 5.332-5.332 0-2.9453-2.3867-5.3359-5.332-5.3359h-53.336c-2.9453 0-5.332 2.3906-5.332 5.3359 0 2.9453 2.3867 5.332 5.332 5.332z"/>
 </g>
</svg>
