<?xml version="1.0" encoding="UTF-8"?>
<svg width="128pt" height="128pt" version="1.1" viewBox="0 0 128 128" xmlns="http://www.w3.org/2000/svg">
 <path d="m107.85 21.332h-87.703c-3.9258 0.007813-7.6914 1.5703-10.469 4.3477-2.7773 2.7773-4.3398 6.543-4.3477 10.469v55.703c0.007813 3.9258 1.5703 7.6914 4.3477 10.469 2.7773 2.7773 6.543 4.3398 10.469 4.3477h87.703c3.9258-0.007813 7.6914-1.5703 10.469-4.3477 2.7773-2.7773 4.3398-6.543 4.3477-10.469v-55.703c-0.007813-3.9258-1.5703-7.6914-4.3477-10.469-2.7773-2.7773-6.543-4.3398-10.469-4.3477zm-4.7422 10.668-36.324 32.949c-1.582 1.4297-3.9883 1.4297-5.5703 0l-36.324-32.949zm8.8906 59.852c0 1.1016-0.4375 2.1562-1.2148 2.9336s-1.832 1.2148-2.9336 1.2148h-87.703c-2.293 0-4.1484-1.8555-4.1484-4.1484v-53.488l38.055 34.488c2.7188 2.4805 6.2656 3.8555 9.9453 3.8555s7.2266-1.375 9.9453-3.8555l38.055-34.488z"/>
</svg>
