<?xml version="1.0" encoding="UTF-8"?>
<svg width="128pt" height="128pt" version="1.1" viewBox="0 0 128 128" xmlns="http://www.w3.org/2000/svg">
 <path d="m32 122.69h74.668c1.4141 0.003906 2.7734-0.55859 3.7734-1.5586s1.5625-2.3594 1.5586-3.7773v-106.69c-0.003906-1.4141-0.56641-2.7656-1.5664-3.7617s-2.3555-1.5508-3.7656-1.5508h-74.668c-4.2344 0.015625-8.2891 1.7031-11.281 4.6953-2.9961 2.9922-4.6836 7.0508-4.6953 11.281v85.336c0 4.2422 1.6836 8.3086 4.6758 11.312 2.9961 3.0039 7.0586 4.6992 11.301 4.7109zm34.668-106.67h16v20.883l-4.6484-3.7227c-1.9414-1.5625-4.7148-1.5625-6.6602 0l-4.668 3.7344zm-18.668 0h8v32c0 2.0547 1.1836 3.9297 3.0391 4.8086 1.8555 0.88281 4.0547 0.61719 5.6484-0.68359l9.9805-7.9883 10.023 7.9883c0.94141 0.76562 2.1172 1.1875 3.332 1.1836 0.82031 0.007813 1.6289-0.17188 2.3711-0.51953 1.8477-0.89062 3.0234-2.7617 3.0234-4.8125v-32h8v74.668h-53.332zm-21.332 5.332c0.003906-2.9414 2.3906-5.3242 5.332-5.332h5.332v74.668h-5.332c-1.8164 0.003906-3.6211 0.32031-5.332 0.93359zm5.332 80h69.332v10.668h-69.332c-2.9453 0-5.332-2.3867-5.332-5.332 0-2.9453 2.3867-5.3359 5.332-5.3359z"/>
</svg>
