<?xml version="1.0" encoding="UTF-8"?>
<svg width="128pt" height="128pt" version="1.1" viewBox="0 0 128 128" xmlns="http://www.w3.org/2000/svg">
 <g>
  <path d="m107.85 45.332h-6.5898c-0.37109-3.6523-2.0859-7.0352-4.8086-9.5-2.7227-2.4609-6.2617-3.8281-9.9336-3.832h-66.371c-3.9258 0.007812-7.6914 1.5703-10.469 4.3477-2.7773 2.7734-4.3398 6.5391-4.3477 10.469v34.371-0.003906c0.007813 3.9297 1.5703 7.6953 4.3477 10.469 2.7773 2.7773 6.543 4.3398 10.469 4.3477h66.371c3.6719-0.003906 7.2109-1.3711 9.9336-3.832 2.7227-2.4648 4.4375-5.8477 4.8086-9.5h6.5898c3.9258-0.007813 7.6914-1.5703 10.469-4.3477 2.7773-2.7773 4.3398-6.543 4.3477-10.469v-7.7031c-0.007813-3.9258-1.5703-7.6914-4.3477-10.469-2.7773-2.7773-6.543-4.3398-10.469-4.3477zm-17.184 35.852c0 1.1016-0.4375 2.1562-1.2148 2.9336-0.78125 0.77734-1.8359 1.2148-2.9336 1.2148h-66.371c-2.293 0-4.1484-1.8555-4.1484-4.1484v-34.371 0.003906c0-2.293 1.8555-4.1484 4.1484-4.1484h66.371c2.2891 0 4.1484 1.8555 4.1484 4.1484zm21.332-13.332c0 1.1016-0.4375 2.1562-1.2148 2.9336s-1.832 1.2148-2.9336 1.2148h-6.5195v-16h6.5195c2.293 0 4.1484 1.8555 4.1484 4.1484z"/>
  <path d="m32 48c-1.4141-0.003906-2.7734 0.55859-3.7734 1.5586-1.0039 1-1.5625 2.3594-1.5586 3.7734v21.336c0 2.9453 2.3867 5.332 5.332 5.332s5.332-2.3867 5.332-5.332v-21.336c0.003907-1.4141-0.55469-2.7734-1.5586-3.7734-1-1-2.3594-1.5625-3.7734-1.5586z"/>
  <path d="m53.332 48c-1.4141-0.003906-2.7734 0.55859-3.7734 1.5586s-1.5625 2.3594-1.5586 3.7734v21.336c0 2.9453 2.3867 5.332 5.332 5.332 2.9453 0 5.3359-2.3867 5.3359-5.332v-21.336c0-1.4141-0.55859-2.7734-1.5586-3.7734-1.0039-1-2.3594-1.5625-3.7773-1.5586z"/>
  <path d="m74.668 48c-1.418-0.003906-2.7734 0.55859-3.7773 1.5586-1 1-1.5586 2.3594-1.5586 3.7734v21.336c0 2.9453 2.3906 5.332 5.3359 5.332 2.9453 0 5.332-2.3867 5.332-5.332v-21.336c0.003906-1.4141-0.55859-2.7734-1.5586-3.7734s-2.3594-1.5625-3.7734-1.5586z"/>
 </g>
</svg>
