<?xml version="1.0" encoding="UTF-8"?>
<svg width="1200pt" height="1200pt" version="1.1" viewBox="0 0 1200 1200" xmlns="http://www.w3.org/2000/svg">
 <g>
  <path d="m600 50c-145.87 0-285.77 57.945-388.91 161.09-103.14 103.14-161.09 243.04-161.09 388.91s57.945 285.77 161.09 388.91c103.14 103.14 243.04 161.09 388.91 161.09s285.77-57.945 388.91-161.09c103.14-103.14 161.09-243.04 161.09-388.91-0.17578-145.82-58.18-285.61-161.29-388.71-103.11-103.11-242.9-161.11-388.71-161.29zm406.89 600h40.223-0.003906c-11.473 101.37-57 195.84-129.14 267.97-72.133 72.137-166.61 117.66-267.97 129.14v-40.219c0-17.863-9.5312-34.371-25-43.305-15.469-8.9297-34.531-8.9297-50 0-15.469 8.9336-25 25.441-25 43.305v40.223-0.003906c-101.37-11.473-195.84-57-267.97-129.14-72.137-72.133-117.66-166.61-129.14-267.97h40.223-0.003906c17.863 0 34.371-9.5312 43.305-25 8.9297-15.469 8.9297-34.531 0-50-8.9336-15.469-25.441-25-43.305-25h-40.219c11.473-101.37 57-195.84 129.14-267.97 72.133-72.137 166.61-117.66 267.97-129.14v40.223-0.003906c0 17.863 9.5312 34.371 25 43.305 15.469 8.9297 34.531 8.9297 50 0 15.469-8.9336 25-25.441 25-43.305v-40.219c101.37 11.473 195.84 57 267.97 129.14 72.137 72.133 117.66 166.61 129.14 267.97h-40.219c-17.863 0-34.371 9.5312-43.305 25-8.9297 15.469-8.9297 34.531 0 50 8.9336 15.469 25.441 25 43.305 25z"/>
  <path d="m800 334.45-309.55 129c-12.203 5.0938-21.906 14.797-27 27l-129 309.55c-6.4258 15.422-4.7188 33.035 4.543 46.941s24.859 22.266 41.566 22.281c6.6641 0.11719 13.281-1.1289 19.445-3.668l309.55-129c12.203-5.0938 21.906-14.797 27-27l129-309.55c5.2188-12.297 5.2969-26.172 0.21875-38.527-5.0781-12.359-14.887-22.168-27.246-27.246-12.355-5.0781-26.23-5-38.527 0.21875zm-147.89 317.66-178.67 74.445 74.445-178.67 178.67-74.445z"/>
 </g>
</svg>
