<?xml version="1.0" encoding="UTF-8"?>
<svg width="128pt" height="128pt" version="1.1" viewBox="0 0 128 128" xmlns="http://www.w3.org/2000/svg">
 <path d="m26.668 104h13.949c1.6133 7.125 6.3867 13.125 12.969 16.297 6.5781 3.1758 14.25 3.1758 20.828 0 6.582-3.1719 11.355-9.1719 12.969-16.297h13.949c1.418 0.003906 2.7734-0.55859 3.7773-1.5586 1-1 1.5586-2.3594 1.5586-3.7734v-13.336c0-1.4141-0.5625-2.7695-1.5664-3.7695l-9.1016-9.1016v-17.434c0.003906-11.445-6.0938-22.031-16-27.77v-5.9258c0-5.7148-3.0508-10.996-8-13.855-4.9492-2.8594-11.051-2.8594-16 0-4.9492 2.8594-8 8.1406-8 13.855v6c-9.8945 5.7109-15.996 16.27-16 27.695v17.434l-9.1016 9.1016c-1.0039 1-1.5664 2.3555-1.5664 3.7695v13.336c0 1.4141 0.55859 2.7734 1.5586 3.7734 1.0039 1 2.3594 1.5625 3.7773 1.5586zm37.332 8c-5.2969-0.007812-10.086-3.1484-12.207-8h24.414c-2.1211 4.8516-6.9102 7.9922-12.207 8zm-5.332-90.668c0-2.9453 2.3867-5.332 5.332-5.332s5.332 2.3867 5.332 5.332v2.1484c-3.5273-0.60156-7.1367-0.60156-10.664 0zm-26.668 66.207 9.1016-9.1016c1.0039-1 1.5664-2.3555 1.5664-3.7695v-19.641c0-7.6211 4.0664-14.664 10.664-18.473 6.6016-3.8125 14.734-3.8125 21.336 0 6.5977 3.8086 10.664 10.852 10.664 18.473v19.641c0 1.4141 0.5625 2.7695 1.5664 3.7695l9.1016 9.1016v5.7969l-64-0.003907z"/>
</svg>
