<?xml version="1.0" encoding="UTF-8"?>
<svg width="128pt" height="128pt" version="1.1" viewBox="0 0 128 128" xmlns="http://www.w3.org/2000/svg">
 <g>
  <path d="m5.332 50.203c0.058594 9.9727 4.0586 19.52 11.129 26.551l-3.0469 17.422h0.003907c-0.28125 1.5508 0.14453 3.1445 1.1602 4.3516 1.0156 1.207 2.5117 1.9023 4.0898 1.8945 1.7305 0 2.3711 0 21.332-10.914v-0.003906c2.0781 0.45312 4.1836 0.76562 6.3047 0.9375 6.8281 11.414 20.289 19.199 35.746 19.199 3.1211 0.003906 6.2344-0.31641 9.293-0.96094 16.508 9.5664 17.102 9.5664 18.879 9.5664 1.5742 0 3.0703-0.69922 4.0859-1.9062 1.0156-1.207 1.4453-2.7969 1.1758-4.3516l-2.6797-14.992c6.1875-6.2695 9.6836-14.707 9.7422-23.516 0-16.191-11.945-29.926-28.375-34.547-5.5078-16.867-22.918-29.18-43.504-29.18-24.996 0-45.336 18.145-45.336 40.449zm90.668 0.64062c9.4805 4.293 15.883 12.801 15.883 22.637-0.085937 6.8555-3.1328 13.34-8.3555 17.777-1.332 1.1914-1.9766 2.9766-1.707 4.7422l1.1836 7.1094c-2.168-1.1836-4.8711-2.7734-8.2266-4.7422v0.003906c-0.80859-0.46875-1.7305-0.71484-2.6641-0.71094-0.46484 0-0.92578 0.058594-1.375 0.17578-2.8555 0.77344-5.8008 1.1719-8.7578 1.1875-8.4844 0.09375-16.656-3.1875-22.723-9.1172 20.672-3.543 36.387-19.672 36.742-39.062zm-45.332-30.422c19.117 0 34.664 13.355 34.664 29.781 0 16.43-15.547 29.773-34.664 29.773-3.4258 0.007813-6.8359-0.43359-10.148-1.3047-1.3633-0.36328-2.8164-0.17188-4.0391 0.53516-4.4805 2.6289-8.0352 4.6211-10.691 6.125l1.6719-9.5508c0.31641-1.8203-0.33203-3.6719-1.7188-4.8945-6.082-5.1641-9.6328-12.707-9.7422-20.684 0-16.426 15.551-29.781 34.668-29.781z"/>
  <path d="m27.082 51.816c0.13281 0.32031 0.29688 0.63281 0.48438 0.92578 0.99219 1.4766 2.6523 2.3672 4.4336 2.3672s3.4414-0.89062 4.4336-2.3672c0.1875-0.29688 0.35547-0.60547 0.49609-0.92578 0.12891-0.32031 0.23047-0.65625 0.29687-0.99609 0.070313-0.34375 0.10547-0.69141 0.10547-1.043 0-2.9453-2.3867-5.332-5.332-5.332s-5.332 2.3867-5.332 5.332c0 0.35156 0.035156 0.69922 0.10547 1.043 0.066406 0.34375 0.16797 0.67578 0.30859 0.99609z"/>
  <path d="m50.668 55.109c2.5508 0.007813 4.75-1.793 5.25-4.293 0.5-2.5039-0.83594-5.0078-3.1914-5.9883-2.3555-0.97656-5.0742-0.15234-6.4922 1.9688s-1.1406 4.9453 0.66406 6.75c1 0.99609 2.3555 1.5586 3.7695 1.5625z"/>
  <path d="m66.371 54.211c0.29297 0.1875 0.60156 0.35547 0.92188 0.49609 0.32422 0.12891 0.65625 0.23047 0.99609 0.29688 0.34375 0.070313 0.69531 0.10547 1.043 0.10547 1.7812-0.003906 3.4414-0.89062 4.4336-2.3672 0.19141-0.29297 0.35156-0.60547 0.48438-0.92578 0.14062-0.32031 0.24219-0.65234 0.30859-0.99609 0.070312-0.34375 0.10938-0.69141 0.10938-1.043-0.003907-1.5977-0.71875-3.1094-1.9531-4.1211s-2.8594-1.418-4.4258-1.1055c-0.33984 0.066407-0.67578 0.17188-0.99609 0.30859-0.32031 0.13281-0.62891 0.29688-0.92188 0.48438-1.4805 0.99219-2.3672 2.6523-2.3672 4.4336s0.88672 3.4414 2.3672 4.4336z"/>
 </g>
</svg>
