<?xml version="1.0" encoding="UTF-8"?>
<svg width="128pt" height="128pt" version="1.1" viewBox="0 0 128 128" xmlns="http://www.w3.org/2000/svg">
 <path d="m33.973 88.871c-1.75-1.75-1.75-4.5859 0-6.3359 1.7461-1.75 4.5859-1.75 6.3359 0 10.246 10.246 26.859 10.246 37.105 0 10.25-10.246 10.25-26.859 0-37.109-10.246-10.246-26.859-10.246-37.105 0-1.75 1.75-4.5898 1.75-6.3359 0-1.75-1.75-1.75-4.5859 0-6.3359 13.746-13.746 36.031-13.746 49.777 0s13.746 36.035 0 49.781-36.031 13.746-49.777 0zm36.863-22.273-13.102 12.832c-3.6211 3.6094-9.0508-1.8047-5.4297-5.4141l4.4219-4.3945c1.0039-1 0.67188-1.8086-0.74609-1.8086h-17.609c-2.1016 0-3.8281-1.7148-3.8281-3.832 0-2.1094 1.7148-3.8281 3.8281-3.8281h17.609c1.4102 0 1.75-0.8125 0.74609-1.8125l-4.4219-4.3945c-3.6211-3.6094 1.8086-9.0234 5.4297-5.4141l13.082 12.703c1.5312 1.4844 1.5352 3.8789 0.019532 5.3633z" fill-rule="evenodd"/>
</svg>
