<?xml version="1.0" encoding="UTF-8"?>
<svg width="128pt" height="128pt" version="1.1" viewBox="0 0 128 128" xmlns="http://www.w3.org/2000/svg">
 <path d="m64 122.64c15.555 0.003907 30.473-6.168 41.477-17.164 11.004-10.996 17.188-25.91 17.191-41.465 0.003906-15.555-6.1719-30.473-17.168-41.473-10.996-11.004-25.914-17.184-41.469-17.188-15.555 0-30.473 6.1758-41.473 17.176-11 10.996-17.18 25.914-17.18 41.469 0.019532 15.543 6.2031 30.445 17.191 41.438 10.988 10.992 25.887 17.18 41.43 17.207zm47.668-64h-15.797c-0.69922-14.707-4.2188-27.688-9.6133-37.168 14.121 7.4102 23.652 21.34 25.434 37.191zm-15.82 10.668 15.844-0.003906c-1.7812 15.852-11.312 29.781-25.434 37.191 5.3906-9.4805 8.9141-22.457 9.6133-37.168zm-26.492-51.535c7.6797 5 14.793 20.254 15.836 40.891h-15.836zm0 51.543h15.836c-1.043 20.648-8.1562 35.902-15.836 40.902zm-10.664-51.543v40.891h-15.836c1.0547-20.637 8.1094-35.891 15.836-40.891zm0 51.543v40.902c-7.7266-5-14.781-20.254-15.836-40.891zm-16.902-47.82c-5.3789 9.4805-8.9141 22.52-9.6133 37.168h-15.82c1.793-15.84 11.316-29.762 25.434-37.168zm-9.6094 47.832c0.69922 14.707 4.2305 27.688 9.6133 37.168h-0.003907c-14.117-7.4062-23.641-21.328-25.434-37.168z"/>
</svg>
