<?xml version="1.0" encoding="UTF-8"?>
<svg width="128pt" height="128pt" version="1.1" viewBox="0 0 128 128" xmlns="http://www.w3.org/2000/svg">
 <g>
  <path d="m64 5.332c-32.344 0-58.668 23.395-58.668 52.148 0.085938 13.148 5.4844 25.703 14.969 34.809l-4.2188 24.121c-0.28125 1.5508 0.14453 3.1484 1.1562 4.3594 1.0156 1.2109 2.5156 1.9062 4.0938 1.8984 1.8242 0 2.75 0 28.125-14.66 4.7734 1.082 9.6484 1.6289 14.543 1.6211 32.344 0 58.668-23.395 58.668-52.148 0-28.75-26.324-52.148-58.668-52.148zm0 93.629v0.003906c-4.7148 0.015625-9.4141-0.58203-13.973-1.7812-1.3672-0.35938-2.8203-0.16016-4.043 0.54688-8.0586 4.6445-13.676 7.8203-17.539 9.9805l2.8555-16.453c0.32031-1.8008-0.3125-3.6445-1.6719-4.8711-8.8047-7.7969-13.629-18.062-13.629-28.906 0-22.875 21.535-41.48 48-41.48s48 18.605 48 41.48-21.535 41.484-48 41.484z"/>
  <path d="m37.332 50.266c-2.5508-0.007813-4.75 1.793-5.25 4.293-0.5 2.5039 0.83594 5.0078 3.1914 5.9883 2.3555 0.97656 5.0742 0.15234 6.4922-1.9688s1.1406-4.9453-0.66406-6.75c-1-1-2.3555-1.5625-3.7695-1.5625z"/>
  <path d="m62.957 50.371c-0.34375 0.066406-0.67578 0.16797-0.99609 0.30859-0.32031 0.13281-0.63281 0.29687-0.92578 0.48437-1.4766 0.99219-2.3672 2.6523-2.3672 4.4336s0.89062 3.4414 2.3672 4.4336c0.29688 0.1875 0.60547 0.35547 0.92578 0.49609 0.32422 0.12891 0.65625 0.22656 0.99609 0.29688 0.34375 0.070312 0.69141 0.10547 1.043 0.10547 1.5078 0.003906 2.9492-0.62891 3.9648-1.7461 1.0156-1.1133 1.5078-2.6094 1.3594-4.1094-0.14844-1.5039-0.92578-2.8711-2.1367-3.7695-1.2148-0.89453-2.75-1.2344-4.2305-0.93359z"/>
  <path d="m95.598 53.559c-0.14453-0.32031-0.30859-0.62891-0.5-0.92578-1.1992-1.7891-3.3594-2.6797-5.4727-2.2617-0.34375 0.066406-0.67578 0.16797-0.99609 0.30859-0.32422 0.13281-0.63281 0.29687-0.92578 0.48437-0.57812 0.39063-1.0781 0.89063-1.4688 1.4688-0.19141 0.29297-0.35156 0.60156-0.48438 0.92578-0.14062 0.32031-0.24219 0.65234-0.30859 0.99609-0.070312 0.34375-0.10938 0.69141-0.10938 1.043 0.007813 1.7773 0.89453 3.4414 2.3711 4.4336 0.29688 0.1875 0.60547 0.35547 0.92578 0.49609 0.32031 0.12891 0.65625 0.22656 0.99609 0.29688 0.34375 0.070312 0.69141 0.10547 1.043 0.10547 2.9414-0.003907 5.3242-2.3906 5.332-5.332 0-0.35156-0.035156-0.69922-0.10547-1.043-0.070312-0.33984-0.16797-0.67578-0.29688-0.99609z"/>
 </g>
</svg>
