<?xml version="1.0" encoding="UTF-8"?>
<svg width="1200pt" height="1200pt" version="1.1" viewBox="0 0 1200 1200" xmlns="http://www.w3.org/2000/svg">
 <path d="m192.67 527c46.309 46.184 107.33 74.684 172.47 80.551 65.137 5.8633 130.27-11.273 184.09-48.441l257 257-63 63c-12.625 12.645-17.543 31.062-12.906 48.316 4.6367 17.254 18.129 30.723 35.391 35.332 17.262 4.6133 35.668-0.33594 48.293-12.98l8.332-8.332 54.555-54.668 91.555 91.555-86.668 86.668h0.003906c-12.621 12.645-17.543 31.062-12.906 48.312 4.6406 17.254 18.129 30.727 35.391 35.336 17.262 4.6094 35.672-0.33984 48.293-12.98l121.67-122.22c9.3359-9.3906 14.578-22.094 14.578-35.336 0-13.238-5.2422-25.941-14.578-35.332l-162.22-162.22-292-291.66c40.539-58.555 57.188-130.38 46.555-200.8-10.637-70.418-47.754-134.12-103.78-178.09-56.02-43.973-126.71-64.895-197.64-58.496-70.93 6.3984-136.74 39.641-183.98 92.926-47.246 53.289-72.363 122.61-70.223 193.79 2.1406 71.184 31.379 138.87 81.742 189.22zm70.668-324.45h-0.003907c22.273-22.273 50.02-38.293 80.445-46.445 30.426-8.1523 62.465-8.1523 92.891 0s58.168 24.172 80.441 46.445c33.652 33.652 52.559 79.297 52.559 126.89s-18.906 93.234-52.559 126.89c-33.652 33.648-79.297 52.555-126.89 52.555s-93.234-18.906-126.89-52.555c-33.652-33.652-52.559-79.297-52.559-126.89s18.906-93.234 52.555-126.89z"/>
</svg>
