<?xml version="1.0" encoding="UTF-8"?>
<svg width="128pt" height="128pt" version="1.1" viewBox="0 0 128 128" xmlns="http://www.w3.org/2000/svg">
 <g>
  <path d="m107.85 16h-6.5195v-5.332c0-2.9453-2.3867-5.3359-5.332-5.3359s-5.332 2.3906-5.332 5.3359v5.332h-21.332l-0.003907-5.332c0-2.9453-2.3867-5.3359-5.332-5.3359s-5.332 2.3906-5.332 5.3359v5.332h-21.332l-0.003907-5.332c0-2.9453-2.3867-5.3359-5.332-5.3359s-5.332 2.3906-5.332 5.3359v5.332h-6.5195c-3.9258 0.007812-7.6914 1.5703-10.469 4.3477-2.7773 2.7734-4.3398 6.5391-4.3477 10.469v77.035c0.007813 3.9258 1.5703 7.6914 4.3477 10.469 2.7773 2.7773 6.543 4.3398 10.469 4.3477h87.703c3.9258-0.007813 7.6914-1.5703 10.469-4.3477 2.7773-2.7773 4.3398-6.543 4.3477-10.469v-77.035c-0.007813-3.9297-1.5703-7.6953-4.3477-10.469-2.7773-2.7773-6.543-4.3398-10.469-4.3477zm4.1484 91.852c0 1.1016-0.4375 2.1562-1.2148 2.9336s-1.832 1.2148-2.9336 1.2148h-87.703c-2.293 0-4.1484-1.8555-4.1484-4.1484v-49.184h96zm0-59.852h-96v-17.184c0-2.293 1.8555-4.1484 4.1484-4.1484h6.5195v5.332c0 2.9453 2.3867 5.332 5.332 5.332s5.332-2.3867 5.332-5.332v-5.332h21.332l0.003907 5.332c0 2.9453 2.3867 5.332 5.332 5.332s5.332-2.3867 5.332-5.332v-5.332h21.332l0.003907 5.332c0 2.9453 2.3867 5.332 5.332 5.332s5.332-2.3867 5.332-5.332v-5.332h6.5195c2.293 0 4.1484 1.8555 4.1484 4.1484z"/>
  <path d="m29.949 76.707c0.13672 0.32031 0.30469 0.62891 0.5 0.92188 0.19141 0.28906 0.41406 0.55859 0.66016 0.80859 0.24219 0.25 0.51172 0.47266 0.80859 0.66016 0.29297 0.19141 0.60156 0.35938 0.92188 0.5 0.32422 0.12891 0.65625 0.22656 0.99609 0.29688 0.6875 0.14062 1.3984 0.14062 2.0859 0 0.33984-0.070312 0.67578-0.16797 0.99609-0.29688 0.32031-0.14453 0.62891-0.30859 0.92578-0.5 0.57812-0.39062 1.0781-0.88672 1.4688-1.4688 0.19141-0.29297 0.35156-0.60156 0.48438-0.92188 0.14062-0.32031 0.24219-0.65625 0.30859-0.99609 0.070312-0.34375 0.10938-0.69531 0.10938-1.043-0.007813-1.7812-0.89453-3.4414-2.3711-4.4336-0.29688-0.1875-0.60547-0.35547-0.92578-0.5-0.32031-0.12891-0.65625-0.22656-0.99609-0.29297-1.5664-0.3125-3.1875 0.09375-4.4219 1.1055s-1.9531 2.5234-1.9531 4.1211c0 0.34766 0.035156 0.69922 0.10547 1.043 0.0625 0.33984 0.16406 0.67578 0.29688 0.99609z"/>
  <path d="m64 80c0.35156 0 0.69922-0.035156 1.043-0.10547 0.33984-0.070312 0.67188-0.16797 0.99609-0.29688 0.32031-0.14453 0.62891-0.30859 0.92578-0.5 0.29297-0.1875 0.5625-0.41016 0.80469-0.66016 1-1 1.5625-2.3555 1.5625-3.7695 0-1.4141-0.5625-2.7734-1.5625-3.7695-0.24219-0.25391-0.51172-0.47656-0.80469-0.66406-0.29688-0.1875-0.60547-0.35547-0.92578-0.5-0.32422-0.12891-0.65625-0.22656-0.99609-0.29297-1.4805-0.30078-3.0156 0.039063-4.2305 0.93359-1.2109 0.89844-1.9883 2.2656-2.1367 3.7656-0.14844 1.5039 0.34375 2.9961 1.3594 4.1133 1.0156 1.1172 2.457 1.75 3.9648 1.7461z"/>
  <path d="m88.203 76.707c0.13281 0.32031 0.29297 0.62891 0.48438 0.92188 0.39062 0.58203 0.89062 1.0781 1.4688 1.4688 0.29688 0.19141 0.60547 0.35547 0.92578 0.5 0.32031 0.12891 0.65625 0.22656 0.99609 0.29688 0.6875 0.14062 1.3984 0.14062 2.0859 0 0.33984-0.070312 0.67188-0.16797 0.99609-0.29688 0.32031-0.14453 0.62891-0.30859 0.92188-0.5 1.4766-0.99219 2.3672-2.6523 2.3711-4.4297 0-0.35156-0.035156-0.69922-0.10547-1.043-0.070312-0.33984-0.16797-0.67578-0.29688-0.99609-0.14453-0.32031-0.30859-0.62891-0.5-0.92578-0.38672-0.57812-0.88672-1.0781-1.4688-1.4688-0.29297-0.19141-0.60156-0.35156-0.92188-0.48438-0.32031-0.14062-0.65625-0.24219-0.99609-0.30859-0.6875-0.14453-1.3984-0.14453-2.0859 0-0.34375 0.066406-0.67578 0.16797-0.99609 0.30859-0.32422 0.13281-0.63281 0.29297-0.92578 0.48438-0.57812 0.39062-1.0781 0.89062-1.4688 1.4688-0.19141 0.29297-0.35156 0.60156-0.48438 0.92578-0.14062 0.32031-0.24219 0.65234-0.30859 0.99609-0.14453 0.6875-0.14453 1.3984 0 2.0859 0.066407 0.33984 0.16797 0.67578 0.30859 0.99609z"/>
  <path d="m34.879 101.33c0.35156 0 0.69922-0.035156 1.043-0.10547 0.33984-0.066406 0.67578-0.16797 0.99609-0.29687 0.32031-0.14063 0.62891-0.30859 0.92578-0.49609 1.4766-0.99219 2.3633-2.6523 2.3711-4.4336 0-0.35156-0.039063-0.69922-0.10938-1.043-0.066407-0.34375-0.16797-0.67578-0.30859-0.99609-0.13281-0.32031-0.29297-0.63281-0.48438-0.92578-0.39062-0.57812-0.89062-1.0781-1.4688-1.4688-0.29688-0.1875-0.60547-0.35547-0.92578-0.49609-0.32031-0.12891-0.65625-0.23047-0.99609-0.29687-0.6875-0.14063-1.3984-0.14063-2.0859 0-0.33984 0.066406-0.67188 0.16797-0.99609 0.29687-0.32031 0.14063-0.62891 0.30469-0.92188 0.49609-0.29688 0.1875-0.56641 0.41016-0.80859 0.66406-0.24609 0.24609-0.46875 0.51562-0.66016 0.80469-0.19531 0.29297-0.36328 0.60547-0.5 0.92578-0.13281 0.32031-0.23438 0.65625-0.29688 0.99609-0.070313 0.34375-0.10547 0.69141-0.10547 1.043 0.007813 2.9414 2.3906 5.3281 5.332 5.332z"/>
  <path d="m59.07 98.039c0.14063 0.32031 0.30859 0.62891 0.49609 0.92578 0.99219 1.4766 2.6523 2.3633 4.4336 2.3672 0.35156 0 0.69922-0.035156 1.043-0.10547 0.34375-0.066406 0.67578-0.16797 0.99609-0.30859 0.32031-0.13281 0.63281-0.29688 0.92578-0.48438 0.29297-0.1875 0.5625-0.41016 0.80469-0.66406 0.24609-0.24609 0.46875-0.51562 0.66406-0.80469 0.1875-0.29297 0.35156-0.60547 0.48438-0.92578 0.14062-0.32031 0.24219-0.65234 0.30859-0.99609 0.070313-0.34375 0.10547-0.69141 0.10547-1.043 0-2.9453-2.3867-5.332-5.332-5.332s-5.332 2.3867-5.332 5.332c0 0.35156 0.035156 0.69922 0.10547 1.043 0.0625 0.33984 0.16016 0.67578 0.29687 0.99609z"/>
  <path d="m88.203 98.039c0.13281 0.32031 0.29297 0.63281 0.48438 0.92578 0.39062 0.57812 0.89062 1.0781 1.4688 1.4688 0.29297 0.1875 0.60156 0.35156 0.92578 0.48438 0.32031 0.14062 0.65234 0.24219 0.99609 0.30859 0.6875 0.14063 1.3984 0.14063 2.0859 0 0.33984-0.066406 0.67578-0.16797 0.99609-0.30859 0.32031-0.13281 0.62891-0.29688 0.92188-0.48438 0.58203-0.39062 1.082-0.89062 1.4688-1.4688 0.19141-0.29688 0.35547-0.60547 0.5-0.92578 0.12891-0.32422 0.22656-0.65625 0.29688-0.99609 0.14062-0.6875 0.14062-1.3984 0-2.0859-0.0625-0.33984-0.16406-0.67578-0.29688-0.99609-0.14453-0.32031-0.30859-0.62891-0.5-0.92578-0.38672-0.57812-0.88672-1.0781-1.4688-1.4688-0.29297-0.1875-0.60156-0.35156-0.92188-0.48438-0.32031-0.14062-0.65625-0.24219-0.99609-0.30859-0.6875-0.14063-1.3984-0.14063-2.0859 0-0.34375 0.066406-0.67578 0.16797-0.99609 0.30859-0.32422 0.13281-0.63281 0.29688-0.92578 0.48438-0.57812 0.39062-1.0781 0.89062-1.4688 1.4688-0.19141 0.29297-0.35156 0.60547-0.48438 0.92578-0.14062 0.32031-0.24219 0.65234-0.30859 0.99609-0.14453 0.6875-0.14453 1.3984 0 2.0859 0.066407 0.34375 0.16797 0.67578 0.30859 0.99609z"/>
 </g>
</svg>
