<?xml version="1.0" encoding="UTF-8"?>
<svg width="128pt" height="128pt" version="1.1" viewBox="0 0 128 128" xmlns="http://www.w3.org/2000/svg">
 <g>
  <path d="m53.332 45.332c-1.4141 0-2.7734 0.55859-3.7734 1.5586-1 1.0039-1.5625 2.3594-1.5586 3.7773v48c-0.003906 1.4141 0.55859 2.7734 1.5586 3.7734s2.3594 1.5625 3.7734 1.5586h21.336c1.4141 0.003906 2.7734-0.55859 3.7734-1.5586s1.5625-2.3594 1.5586-3.7734v-48c0.003906-1.418-0.55859-2.7734-1.5586-3.7773-1-1-2.3594-1.5586-3.7734-1.5586zm16 48h-10.668l0.003907-37.332h10.668z"/>
  <path d="m10.668 104h21.332c1.4141 0.003906 2.7734-0.55859 3.7734-1.5586 1.0039-1 1.5625-2.3594 1.5586-3.7734v-26.668c0.003907-1.4141-0.55469-2.7734-1.5586-3.7734-1-1.0039-2.3594-1.5625-3.7734-1.5586h-21.332c-1.418-0.003907-2.7734 0.55469-3.7773 1.5586-1 1-1.5586 2.3594-1.5586 3.7734v26.668c0 1.4141 0.55859 2.7734 1.5586 3.7734 1.0039 1 2.3594 1.5625 3.7773 1.5586zm5.332-26.668h10.668v16h-10.668z"/>
  <path d="m117.33 24h-21.332c-1.4141-0.003906-2.7734 0.55859-3.7734 1.5586-1.0039 1-1.5625 2.3594-1.5586 3.7734v69.336c-0.003907 1.4141 0.55469 2.7734 1.5586 3.7734 1 1 2.3594 1.5625 3.7734 1.5586h21.332c1.418 0.003906 2.7734-0.55859 3.7773-1.5586 1-1 1.5586-2.3594 1.5586-3.7734v-69.336c0-1.4141-0.55859-2.7734-1.5586-3.7734-1.0039-1-2.3594-1.5625-3.7773-1.5586zm-5.332 69.332h-10.668v-58.664h10.668z"/>
 </g>
</svg>
