<?xml version="1.0" encoding="UTF-8"?>
<svg width="128pt" height="128pt" version="1.1" viewBox="0 0 128 128" xmlns="http://www.w3.org/2000/svg">
 <g>
  <path d="m107.85 48h-17.184v-27.852c-0.007813-3.9258-1.5703-7.6914-4.3477-10.469-2.7773-2.7773-6.543-4.3398-10.469-4.3477h-55.703c-3.9258 0.007813-7.6914 1.5703-10.469 4.3477-2.7773 2.7773-4.3398 6.543-4.3477 10.469v81.184c0 5.6602 2.25 11.086 6.25 15.086s9.4258 6.25 15.086 6.25h74.668 0.46094 0.54688-0.003906c5.543-0.3125 10.75-2.7539 14.539-6.8125 3.7891-4.0586 5.8594-9.4219 5.7891-14.973v-38.066c-0.007813-3.9297-1.5703-7.6953-4.3477-10.469-2.7773-2.7773-6.543-4.3398-10.469-4.3477zm-81.184 64c-5.8906 0-10.668-4.7773-10.668-10.668v-81.184c0-2.293 1.8555-4.1484 4.1484-4.1484h55.703c2.293 0 4.1484 1.8555 4.1484 4.1484v81.184c-0.007812 3.75 0.98438 7.4297 2.8672 10.668zm85.332-11.117c0.066406 5.7969-4.3672 10.648-10.145 11.105-0.085938-0.007812-0.17578-0.007812-0.26172 0h-0.26172c-5.8906 0-10.664-4.7773-10.664-10.668v-42.668l17.184 0.003906c1.1016 0 2.1602 0.4375 2.9375 1.2188 0.77734 0.78125 1.2148 1.8359 1.2109 2.9414z"/>
  <path d="m64 26.668h-32c-2.9453 0-5.332 2.3867-5.332 5.332s2.3867 5.332 5.332 5.332h32c2.9453 0 5.332-2.3867 5.332-5.332s-2.3867-5.332-5.332-5.332z"/>
  <path d="m64 58.668h-32c-2.9453 0-5.332 2.3867-5.332 5.332s2.3867 5.332 5.332 5.332h32c2.9453 0 5.332-2.3867 5.332-5.332s-2.3867-5.332-5.332-5.332z"/>
  <path d="m64 90.668h-32c-2.9453 0-5.332 2.3867-5.332 5.332s2.3867 5.332 5.332 5.332h32c2.9453 0 5.332-2.3867 5.332-5.332s-2.3867-5.332-5.332-5.332z"/>
 </g>
</svg>
