<?xml version="1.0" encoding="UTF-8"?>
<svg width="128pt" height="128pt" version="1.1" viewBox="0 0 128 128" xmlns="http://www.w3.org/2000/svg">
 <path d="m107.85 26.668h-11.852v-6.5195c-0.007812-3.9258-1.5703-7.6914-4.3477-10.469-2.7734-2.7773-6.5391-4.3398-10.469-4.3477h-34.371 0.003906c-3.9297 0.007813-7.6953 1.5703-10.469 4.3477-2.7773 2.7773-4.3398 6.543-4.3477 10.469v6.5195h-11.852c-3.9258 0.003906-7.6914 1.5664-10.469 4.3438-2.7773 2.7773-4.3398 6.543-4.3477 10.469v66.371c0.007813 3.9258 1.5703 7.6914 4.3477 10.469 2.7773 2.7773 6.543 4.3398 10.469 4.3477h87.703c3.9258-0.007813 7.6914-1.5703 10.469-4.3477 2.7773-2.7773 4.3398-6.543 4.3477-10.469v-66.371c-0.007813-3.9258-1.5703-7.6914-4.3477-10.469-2.7773-2.7773-6.543-4.3398-10.469-4.3438zm-65.184-6.5195c0-2.293 1.8555-4.1484 4.1484-4.1484h34.371-0.003906c2.293 0 4.1484 1.8555 4.1484 4.1484v6.5195h-42.664zm69.332 87.703c0 1.1016-0.4375 2.1562-1.2148 2.9336s-1.832 1.2148-2.9336 1.2148h-87.703c-2.293 0-4.1484-1.8555-4.1484-4.1484v-38.52h16v5.3359c0 2.9453 2.3867 5.332 5.332 5.332 2.9453 0 5.3359-2.3867 5.3359-5.332v-5.3359h42.664v5.3359c0 2.9453 2.3906 5.332 5.3359 5.332 2.9453 0 5.332-2.3867 5.332-5.332v-5.3359h16zm0-49.184h-16v-5.3359c0-2.9453-2.3867-5.332-5.332-5.332-2.9453 0-5.3359 2.3867-5.3359 5.332v5.332l-42.664 0.003907v-5.3359c0-2.9453-2.3906-5.332-5.3359-5.332-2.9453 0-5.332 2.3867-5.332 5.332v5.332l-16 0.003907v-17.188c0-2.2891 1.8555-4.1484 4.1484-4.1484h87.703c2.293 0 4.1484 1.8594 4.1484 4.1484z" fill="#ffffff"/>
</svg>
