<?xml version="1.0" encoding="UTF-8"?>
<svg width="128pt" height="128pt" version="1.1" viewBox="0 0 128 128" xmlns="http://www.w3.org/2000/svg">
 <path d="m8.7461 56.105 45.605 17.539 17.539 45.605 0.003906 0.003906c0.79688 2.0547 2.7734 3.4102 4.9766 3.4141 2.2109 0 4.1953-1.3711 4.9766-3.4375l40.414-106.55v-0.10547l0.003906-0.003906c0.09375-0.26562 0.17188-0.53906 0.22266-0.81641 0.003907-0.074218 0.003907-0.15234 0-0.22656 0-0.23828 0.023438-0.47266 0.070313-0.71094v-0.28516c0-0.25391-0.023438-0.5-0.070313-0.74609v-0.19141 0.003906c-0.0625-0.29687-0.14844-0.58594-0.26172-0.86719l-0.10547-0.22656c-0.089844-0.21875-0.20312-0.42578-0.33203-0.625-0.042968-0.085937-0.09375-0.16406-0.15234-0.23828-0.17578-0.26953-0.37891-0.51953-0.60547-0.74609-0.22266-0.23047-0.47656-0.43359-0.74609-0.60547l-0.23828-0.16406c-0.19922-0.12109-0.40625-0.22656-0.61719-0.32031l-0.23828-0.10547 0.003906-0.003906c-0.28125-0.10938-0.57031-0.19531-0.86719-0.25781h-0.20312 0.003906c-0.24609-0.039062-0.49219-0.0625-0.73438-0.074218h-0.27344l-0.71094 0.070312h-0.21484v0.003906c-0.28125 0.050782-0.55859 0.125-0.82812 0.22266l-106.6 40.477c-2.0664 0.78516-3.4336 2.7695-3.4336 4.9805 0 2.2148 1.3672 4.1992 3.4336 4.9844zm68.09 46.281-12.137-31.547 38.84-38.84zm19.164-77.926-38.84 38.84-31.547-12.137z"/>
</svg>
