<?xml version="1.0" encoding="UTF-8"?>
<svg width="1200pt" height="1200pt" version="1.1" viewBox="0 0 1200 1200" xmlns="http://www.w3.org/2000/svg">
 <g>
  <path d="m93.777 828.55c-0.027344 13.27 5.2305 26.004 14.613 35.391 9.3828 9.3828 22.117 14.641 35.387 14.609h912.45c13.27 0.03125 26.004-5.2266 35.387-14.609 9.3828-9.3867 14.641-22.121 14.613-35.391 0-4.2227-4.668-381.89-368.89-458.33 22.867-47.277 19.812-102.99-8.0898-147.48-27.902-44.492-76.727-71.504-129.24-71.504s-101.34 27.012-129.24 71.504c-27.902 44.488-30.957 100.2-8.0898 147.48-364.22 76.445-368.89 454.11-368.89 458.33zm506.22-577c13.938 0 27.305 5.5391 37.164 15.395 9.8555 9.8555 15.391 23.223 15.391 37.16 0 13.941-5.5352 27.309-15.391 37.164-9.8594 9.8555-23.227 15.395-37.164 15.395s-27.305-5.5391-37.164-15.395c-9.8555-9.8555-15.391-23.223-15.391-37.164 0.027344-13.93 5.5742-27.277 15.426-37.129 9.8477-9.8477 23.199-15.395 37.129-15.426zm0 205.11c313.67 0 385.22 220.11 401.45 322.22h-803.22c15.777-102.11 86.223-322.22 401.78-322.22z"/>
  <path d="m1100 948.45h-1e3c-17.863 0-34.371 9.5273-43.301 25-8.9336 15.469-8.9336 34.527 0 50 8.9297 15.469 25.438 25 43.301 25h1e3c17.863 0 34.371-9.5312 43.301-25 8.9336-15.473 8.9336-34.531 0-50-8.9297-15.473-25.438-25-43.301-25z"/>
 </g>
</svg>
