<?xml version="1.0" encoding="UTF-8"?>
<svg width="128pt" height="128pt" version="1.1" viewBox="0 0 128 128" xmlns="http://www.w3.org/2000/svg">
 <g>
  <path d="m48.512 17.281c2.1758-3.3281 5.6328-5.8867 9.3438-7.168 3.8398-1.2812 8.0625-1.2812 11.902 0 3.457 1.1523 6.6562 3.457 8.832 6.3984 1.5352 2.0469 2.4336 4.4805 3.5859 6.7852 0.76953 1.9219 2.4336 3.457 4.3516 4.2227 1.4062 0.64062 3.0703 0.76953 4.6094 0.51172 2.6875-0.38281 5.2461-0.89453 7.9375-0.64062 4.8633 0.25781 9.6016 2.6875 12.672 6.5273 2.4336 2.9453 4.0977 6.6562 4.3516 10.496 0.25781 2.9453-0.25781 6.0156-1.4062 8.832-1.1523 2.6875-3.0703 4.8633-4.6094 7.2969-1.2812 2.3047-1.4062 5.1211-0.25781 7.4258 0.38281 0.89453 1.1523 1.793 1.793 2.5586 0.76953 0.89453 1.4062 1.793 2.1758 2.6875 1.793 2.4336 3.0703 5.2461 3.457 8.3203 0.51172 3.457 0 6.9102-1.4062 10.113-1.6641 3.9688-4.8633 7.2969-8.7031 9.2148-2.9453 1.5352-6.3984 2.1758-9.7266 1.793-1.5352-0.12891-3.0703-0.25781-4.4805-0.38281-2.6875-0.12891-5.375 1.1523-6.9102 3.3281-0.76953 1.0234-1.1523 2.1758-1.5352 3.1992-0.38281 1.0234-0.76953 1.9219-1.1523 2.9453-1.4062 3.3281-3.8398 6.1445-6.7852 8.0625l-1.0312 0.64062c-4.6094 2.6875-10.367 3.1992-15.359 1.5352-3.457-1.1523-6.6562-3.457-8.832-6.5273-1.6641-2.3047-2.6875-5.1211-3.9688-7.5508-1.2812-2.3047-3.7109-3.7109-6.3984-3.9688-1.1523-0.12891-2.3047 0.12891-3.457 0.25781-1.6641 0.25781-3.1992 0.51172-4.8633 0.51172-2.1758 0-4.3516-0.25781-6.3984-1.0234-4.2227-1.5352-7.9375-4.6094-10.113-8.5742-1.793-3.1992-2.5586-6.7852-2.3047-10.367 0.25781-3.1992 1.4062-6.2734 3.1992-8.9609 0.89453-1.2812 1.6641-2.4336 2.5586-3.7109 1.0234-1.4062 1.5352-3.1992 1.4062-4.9922-0.12891-1.5352-0.64062-3.1992-1.6641-4.4805-0.89453-1.1523-1.9219-2.4336-2.8164-3.5859-1.9219-2.5586-3.3281-5.6328-3.7109-8.9609-0.51172-3.9688 0.38281-8.1914 2.4336-11.648 1.793-3.1992 4.6094-5.7617 7.9375-7.4258 2.8164-1.4062 6.1445-1.9219 9.2148-1.793 1.4062 0.12891 2.6875 0.25781 4.0977 0.25781 0.89453 0.12891 1.9219 0.12891 2.8164-0.12891 2.4336-0.51172 4.4805-2.1758 5.5039-4.3516 1.2773-2.3047 2.0469-5.25 3.7109-7.6797m10.496 3.8398c-1.1523 0.89453-2.0469 2.0469-2.6875 3.457-0.51172 1.4062-1.1523 2.6875-1.6641 4.0977-0.76953 1.9219-1.793 3.5859-3.1992 5.1211-3.3281 3.8398-8.4492 6.2734-13.566 6.3984-1.2812 0-2.6875-0.12891-3.9688-0.25781-1.6641-0.12891-3.3281-0.38281-4.9922 0.12891-3.3281 0.89453-5.7617 3.9688-5.8867 7.4258-0.12891 1.793 0.51172 3.7109 1.5352 5.1211 1.0234 1.2812 2.0469 2.5586 3.0703 3.8398 2.3047 2.9453 3.5859 6.6562 3.7109 10.496 0.12891 3.8398-0.89453 7.6797-3.0703 10.879-0.89453 1.2812-1.793 2.5586-2.5586 3.8398-0.64062 0.89453-1.1523 1.9219-1.2812 3.0703-0.64062 3.1992 1.0234 6.7852 3.8398 8.4492 1.5352 0.89453 3.3281 1.2812 5.1211 1.0234 1.4062-0.25781 2.8164-0.38281 4.3516-0.64063 3.457-0.51172 7.0391 0 10.238 1.4062 3.8398 1.6641 7.168 4.8633 9.0898 8.7031 0.76953 1.4062 1.4062 2.9453 2.1758 4.4805s2.0469 2.8164 3.7109 3.5859c2.1758 1.0234 4.6094 1.0234 6.7852 0.12891 1.9219-0.89453 3.457-2.5586 4.2227-4.4805 0.51172-1.4062 1.1523-2.6875 1.6641-4.0977 1.5352-3.7109 4.3516-6.9102 7.9375-8.9609 3.0703-1.793 6.7852-2.6875 10.367-2.4336 1.5352 0.12891 3.0703 0.25781 4.6094 0.38281 1.4062 0.12891 2.8164-0.12891 3.9688-0.76953 2.6875-1.2812 4.4805-4.0977 4.6094-7.0391 0.12891-1.793-0.51172-3.5859-1.5352-5.1211-1.0234-1.2812-2.0469-2.5586-3.0703-3.8398-2.4336-3.1992-3.7109-7.168-3.7109-11.137 0-3.457 1.0234-6.9102 2.8164-9.8555 1.0234-1.5352 2.1758-3.0703 3.1992-4.6094 1.1523-1.793 1.4062-3.9688 1.0234-5.8867-0.51172-2.1758-1.793-3.9688-3.7109-5.1211-1.4062-0.89453-2.9453-1.2812-4.6094-1.1523-2.8164 0.25781-5.6328 1.0234-8.4492 0.89453-1.9219-0.12891-3.8398-0.51172-5.6328-1.1523-3.8398-1.4062-7.168-4.2227-9.3438-7.8086-1.0234-1.9219-1.9219-3.9688-2.9453-5.8867-0.64062-1.0234-1.4062-2.0469-2.5586-2.6875-2.9492-2.043-6.918-1.9141-9.6055 0.007813z"/>
  <path d="m53.762 51.199c3.3281-2.5586 7.5508-3.9688 11.777-3.9688 3.9688 0 7.9375 1.4062 11.008 3.8398 3.7109 2.8164 6.2734 6.9102 7.168 11.391 0.76953 3.8398 0.25781 7.9375-1.4062 11.391-1.6641 3.7109-4.6094 6.7852-8.1914 8.7031-3.5859 1.9219-7.8086 2.6875-11.902 2.0469-3.7109-0.64062-7.2969-2.4336-10.113-5.1211-3.0703-2.9453-4.9922-6.9102-5.5039-11.137-0.51172-3.8398 0.25781-7.9375 2.1758-11.391 1.1484-2.168 2.9375-4.2188 4.9883-5.7539m5.5039 7.4258c-2.6875 2.0469-3.9688 5.5039-3.457 8.832 0.38281 2.3047 1.5352 4.4805 3.3281 5.8867s4.0977 2.3047 6.3984 2.1758c2.0469 0 4.0977-0.76953 5.7617-2.0469 2.6875-2.0469 3.9688-5.6328 3.3281-8.9609-0.38281-2.3047-1.6641-4.3516-3.457-5.7617-1.793-1.4062-4.0977-2.1758-6.3984-2.0469-1.9219 0-3.9688 0.64062-5.5039 1.9219z"/>
 </g>
</svg>
