<?xml version="1.0" encoding="UTF-8"?>
<svg width="1200pt" height="1200pt" version="1.1" viewBox="0 0 1200 1200" xmlns="http://www.w3.org/2000/svg">
 <path d="m1102 502h-1004.1c-54.098 0-97.961 43.859-97.961 98.008 0 54.098 43.887 97.961 97.961 97.961h1004.1c54.098 0 97.961-43.859 97.961-97.961-0.003906-54.145-43.863-98.008-97.965-98.008zm-1004.1-171.4h1004.1c54.098 0 97.961-43.887 97.961-97.961 0-54.148-43.812-97.961-97.91-97.961h-1004.1c-54.074 0-97.961 43.812-97.961 97.961 0 54.074 43.887 97.961 97.961 97.961zm1004.1 538.75h-1004.1c-54.098 0-97.961 43.859-97.961 98.008 0 54.098 43.887 97.961 97.961 97.961h1004.1c54.098 0 97.961-43.859 97.961-97.961-0.003906-54.148-43.863-98.008-97.965-98.008z"/>
</svg>
