<?xml version="1.0" encoding="UTF-8"?>
<svg width="1200pt" height="1200pt" version="1.1" viewBox="0 0 1200 1200" xmlns="http://www.w3.org/2000/svg">
 <path d="m708.54 491.46v-302.71c0-59.953-48.602-108.54-108.54-108.54-59.953 0-108.54 48.602-108.54 108.54v302.7l-302.71 0.003907c-59.953 0-108.54 48.602-108.54 108.54 0 59.953 48.602 108.54 108.54 108.54h302.7v302.7c0 59.953 48.602 108.54 108.54 108.54 59.941 0 108.54-48.602 108.54-108.54l0.003906-302.69h302.7c59.953 0 108.54-48.602 108.54-108.54 0-59.941-48.602-108.54-108.54-108.54z"/>
</svg>
