<?xml version="1.0" encoding="UTF-8"?>
<svg width="1200pt" height="1200pt" version="1.1" viewBox="0 0 1200 1200" xmlns="http://www.w3.org/2000/svg">
 <path d="m326.45 1150h547.11c36.82-0.058594 72.109-14.711 98.145-40.746 26.035-26.031 40.688-61.324 40.746-98.145v-822.22c-0.058593-36.82-14.711-72.113-40.746-98.145-26.035-26.035-61.324-40.688-98.145-40.746h-274.45c-3.0195 0.007812-6.0352 0.30859-9 0.89062h-0.89062 0.003906c-2.5664 0.60938-5.0938 1.3867-7.5547 2.332l-2.5547 1.1094h-0.003906c-1.9297 0.88672-3.7891 1.9258-5.5547 3.1133l-2.2227 1.332c-2.3711 1.6641-4.6016 3.5234-6.6641 5.5547l-362.56 362.78c-2.1719 2.2031-4.1055 4.6211-5.7773 7.2227l-0.55469 0.77734c-1.4453 2.3242-2.7461 4.7383-3.8867 7.2227-0.23438 0.42578-0.42188 0.87109-0.55859 1.3359-2.4219 5.8125-3.7031 12.035-3.7773 18.332v549.11c0.058593 36.82 14.711 72.113 40.746 98.145 26.035 26.035 61.324 40.688 98.145 40.746zm223.55-929.33v152.89c0 10.316-4.0977 20.207-11.391 27.5-7.293 7.293-17.184 11.391-27.5 11.391h-152.89zm-262.45 291.78h223.55c36.828-0.03125 72.137-14.672 98.18-40.715 26.039-26.039 40.68-61.348 40.711-98.176v-223.55h223.55c10.316 0 20.207 4.0977 27.5 11.391 7.293 7.293 11.391 17.184 11.391 27.5v822.22c0 10.316-4.0977 20.207-11.391 27.5-7.293 7.293-17.184 11.391-27.5 11.391h-547.11c-10.316 0-20.207-4.0977-27.5-11.391-7.293-7.293-11.391-17.184-11.391-27.5z"/>
</svg>
