<?xml version="1.0" encoding="UTF-8"?>
<svg width="128pt" height="128pt" version="1.1" viewBox="0 0 128 128" xmlns="http://www.w3.org/2000/svg">
 <path d="m53.492 103.44c3.0156 1.8633 6.7852 2.0312 9.957 0.44922l10.238-5.1211h0.003906c3.4727-1.7344 5.668-5.2812 5.668-9.1641v-21.363l17.484-17.473c1.9219-1.9219 3-4.5273 2.9961-7.2461v-10.238c0-2.7188-1.0781-5.3203-3-7.2422-1.918-1.9219-4.5234-3-7.2383-3h-51.203c-5.6523 0-10.238 4.5859-10.238 10.242v10.238c-0.003906 2.7188 1.0742 5.3242 2.9961 7.2461l17.484 17.473v26.48c-0.003906 3.5508 1.832 6.8516 4.8516 8.7188zm-15.094-59.918v-10.238h51.203v10.238l-20.48 20.48v25.602l-10.238 5.1211-0.003906-30.723z"/>
</svg>
