<?xml version="1.0" encoding="UTF-8"?>
<svg width="128pt" height="128pt" version="1.1" viewBox="0 0 128 128" xmlns="http://www.w3.org/2000/svg">
 <path d="m109.74 98.895-21.281-19.578c4.7266-6.5664 7.543-14.605 7.543-23.316 0-22.094-17.906-40-40-40-22.09 0-40 17.906-40 40s17.906 40 40 40c8.7109 0 16.746-2.8164 23.316-7.543l19.578 21.281c2.9531 3.2109 7.9883 3.3164 11.074 0.23047s2.9805-8.1211-0.23047-11.074zm-53.738-16.895c-14.359 0-26-11.641-26-26s11.641-26 26-26 26 11.641 26 26-11.641 26-26 26z"/>
</svg>
