<?xml version="1.0" encoding="UTF-8"?>
<svg width="128pt" height="128pt" version="1.1" viewBox="0 0 128 128" xmlns="http://www.w3.org/2000/svg">
 <path d="m117.33 93.332h-10.664v-28.148c2.9453 0 5.332-2.3867 5.332-5.332v-13.391h5.332c2.4219 0 4.5391-1.6289 5.1602-3.9688 0.62109-2.3398-0.41406-4.8008-2.5156-6l-53.332-30.461c-1.6406-0.9375-3.6484-0.9375-5.2891 0l-53.332 30.461c-2.1016 1.1992-3.1367 3.6602-2.5156 6 0.62109 2.3398 2.7383 3.9688 5.1602 3.9688h5.332v13.332c-0.015625 1.4258 0.53906 2.7969 1.5391 3.8086 1.0039 1.0156 2.3711 1.582 3.793 1.582v28.207l-10.664 0.003906c-1.418-0.003906-2.7734 0.55469-3.7773 1.5586-1 1-1.5586 2.3555-1.5586 3.7734v18.605c0 1.418 0.55859 2.7734 1.5586 3.7773 1.0039 1 2.3594 1.5586 3.7773 1.5586h106.66c1.418 0 2.7734-0.55859 3.7773-1.5586 1-1.0039 1.5586-2.3594 1.5586-3.7773v-18.664c0-1.418-0.55859-2.7734-1.5586-3.7773-1.0039-1-2.3594-1.5586-3.7773-1.5586zm-53.332-76.527 33.184 18.965h-66.367zm-37.332 29.629h74.668l-0.003907 8.0859h-74.668zm69.332 18.75v28.207l-10.668 0.003906v-28.211zm-21.332 0v28.207l-21.336 0.003906v-28.211zm-32 0v28.207l-10.668 0.003906v-28.211zm69.332 46.816h-96v-8h96z"/>
</svg>
