<?xml version="1.0" encoding="UTF-8"?>
<svg width="128pt" height="128pt" version="1.1" viewBox="0 0 128 128" xmlns="http://www.w3.org/2000/svg">
 <path d="m64 118.15c29.91 0 54.152-24.242 54.152-54.152s-24.242-54.152-54.152-54.152-54.152 24.242-54.152 54.152 24.242 54.152 54.152 54.152zm0 9.8477c-35.348 0-64-28.652-64-64s28.652-64 64-64 64 28.652 64 64-28.652 64-64 64zm-29.02-47.027c8.0156 16.023 27.504 22.52 43.527 14.508 6.2812-3.1406 11.371-8.2305 14.512-14.508 1.2148-2.4336 0.23047-5.3906-2.2031-6.6055-2.4297-1.2188-5.3867-0.23047-6.6055 2.1992-2.1836 4.375-5.7305 7.9219-10.105 10.105-11.164 5.582-24.734 1.0586-30.316-10.105-1.2188-2.4297-4.1758-3.418-6.6055-2.1992-2.4336 1.2148-3.418 4.1719-2.2031 6.6055zm6.8672-21.895c4.0781 0 7.3828-3.3086 7.3828-7.3867s-3.3047-7.3828-7.3828-7.3828-7.3867 3.3047-7.3867 7.3828 3.3086 7.3867 7.3867 7.3867zm44.305 0c4.0781 0 7.3867-3.3086 7.3867-7.3867s-3.3086-7.3828-7.3867-7.3828-7.3828 3.3047-7.3828 7.3828 3.3047 7.3867 7.3828 7.3867z"/>
</svg>
