<?xml version="1.0" encoding="UTF-8"?>
<svg width="1200pt" height="1200pt" version="1.1" viewBox="0 0 1200 1200" xmlns="http://www.w3.org/2000/svg">
 <path d="m133.33 587.11 66.668-59.891v483.89c0.058594 36.82 14.711 72.113 40.746 98.145 26.031 26.035 61.324 40.688 98.145 40.746h522.22-0.003906c36.82-0.058594 72.113-14.711 98.145-40.746 26.035-26.031 40.688-61.324 40.746-98.145v-483.89l66.668 59.891v-0.003906c13.434 10.504 31.293 13.434 47.379 7.7773s28.18-19.121 32.086-35.719c3.9023-16.602-0.92187-34.047-12.801-46.277l-500-450c-9.1641-8.1992-21.031-12.734-33.332-12.734s-24.168 4.5352-33.332 12.734l-500 450c-11.879 12.23-16.703 29.676-12.801 46.277 3.9062 16.598 16 30.062 32.086 35.719s33.945 2.7266 47.379-7.7773zm566.67 462.89h-200v-350h200zm-400-612.78 300-270 300 270v573.89c0 10.316-4.0977 20.207-11.391 27.5s-17.184 11.391-27.5 11.391h-61.109v-400c0.03125-13.27-5.2305-26.004-14.613-35.387-9.3828-9.3828-22.117-14.645-35.387-14.613h-300c-13.27-0.03125-26.004 5.2305-35.387 14.613-9.3828 9.3828-14.645 22.117-14.613 35.387v400h-61.109c-10.316 0-20.207-4.0977-27.5-11.391s-11.391-17.184-11.391-27.5z"/>
</svg>
