<?xml version="1.0" encoding="UTF-8"?>
<svg width="1200pt" height="1200pt" version="1.1" viewBox="0 0 1200 1200" xmlns="http://www.w3.org/2000/svg">
 <g>
  <path d="m600 437.67c-43.055 0-84.344 17.102-114.79 47.547-30.445 30.441-47.547 71.73-47.547 114.79s17.102 84.344 47.547 114.79c30.441 30.445 71.73 47.547 114.79 47.547s84.344-17.102 114.79-47.547c30.445-30.441 47.547-71.73 47.547-114.79-0.058593-43.035-17.18-84.293-47.609-114.72-30.43-30.43-71.688-47.551-114.72-47.609zm0 224.67v-0.003907c-16.531 0-32.387-6.5664-44.078-18.254-11.688-11.691-18.254-27.547-18.254-44.078s6.5664-32.387 18.254-44.078c11.691-11.688 27.547-18.254 44.078-18.254s32.387 6.5664 44.078 18.254c11.688 11.691 18.254 27.547 18.254 44.078-0.027343 16.523-6.6055 32.359-18.289 44.043-11.684 11.684-27.52 18.262-44.043 18.289z"/>
  <path d="m1100 250h-1e3c-13.27-0.03125-26.004 5.2305-35.387 14.613-9.3828 9.3828-14.645 22.117-14.613 35.387v600c-0.03125 13.27 5.2305 26.004 14.613 35.387 9.3828 9.3828 22.117 14.645 35.387 14.613h1e3c13.27 0.03125 26.004-5.2305 35.387-14.613 9.3828-9.3828 14.645-22.117 14.613-35.387v-600c0.03125-13.27-5.2305-26.004-14.613-35.387-9.3828-9.3828-22.117-14.645-35.387-14.613zm-950 100h91.445c-15.215 42.66-48.785 76.23-91.445 91.445zm0 500v-91.445c42.66 15.215 76.23 48.785 91.445 91.445zm900 0h-91.445c15.215-42.66 48.785-76.23 91.445-91.445zm0-194.45c-47.809 9.9883-91.668 33.707-126.2 68.242s-58.254 78.395-68.242 126.2h-510.55c-10.027-47.883-33.828-91.793-68.469-126.34-34.641-34.543-78.621-58.215-126.53-68.109v-110c48.059-9.9727 92.141-33.809 126.8-68.562 34.656-34.758 58.367-78.906 68.203-126.99h510.55c9.8945 47.91 33.566 91.891 68.109 126.53 34.543 34.641 78.453 58.441 126.34 68.469zm0-213.55c-42.66-15.211-76.23-48.785-91.445-91.445h91.445z"/>
 </g>
</svg>
