<?xml version="1.0" encoding="UTF-8"?>
<svg width="1200pt" height="1200pt" version="1.1" viewBox="0 0 1200 1200" xmlns="http://www.w3.org/2000/svg">
 <path d="m82.445 1117.6c15.844 16.168 36.332 26.996 58.613 30.98 22.285 3.9844 45.258 0.92188 65.719-8.7578l185.67-86.445c2.0938-0.93359 4.1016-2.0469 6-3.332l1.2227-0.89062c2.3672-1.582 4.5977-3.3672 6.6641-5.332l477.78-477.78 132-132.67 82.109-82.109h0.003906c23.477-21.559 40.684-49.07 49.797-79.613 9.1133-30.547 9.793-62.988 1.9648-93.887-7.8242-30.898-23.867-59.105-46.418-81.629-22.555-22.523-50.781-38.527-81.691-46.309-30.91-7.7852-63.352-7.0625-93.883 2.0898s-58.02 26.398-79.547 49.902l-81.777 82.113-609.67 609.33c-1.918 1.9961-3.668 4.1523-5.2227 6.4453-0.33203 0.37891-0.62891 0.78906-0.88672 1.2227-1.3242 1.9727-2.4727 4.0547-3.4453 6.2188l-86.891 186.11c-9.7031 20.434-12.809 43.379-8.8867 65.656 3.9219 22.281 14.676 42.785 30.777 58.676zm836.78-945.11c19.352-19.352 47.559-26.91 73.992-19.828 26.438 7.0859 47.082 27.73 54.168 54.168 7.082 26.434-0.47656 54.641-19.828 73.992l-46.777 46.777-108.33-108.33zm-117.55 117.55 108.33 108.33-60.668 60.777-108.45-108.45zm-131.45 131.45 108.33 108.33-407.22 407.22-108.33-108.33zm-519.11 614 56.336-121 77.777 77.777-120.67 56.668c-3.7461 1.957-8.3438 1.082-11.109-2.1133-3.3086-2.7812-4.2734-7.4688-2.3359-11.332z"/>
</svg>
