<?xml version="1.0" encoding="UTF-8"?>
<svg width="1200pt" height="1200pt" version="1.1" viewBox="0 0 1200 1200" xmlns="http://www.w3.org/2000/svg">
 <g>
  <path d="m276.45 812.67 286.22 320.66c9.5039 10.617 23.082 16.688 37.332 16.688s27.828-6.0703 37.332-16.688l286.22-320.66c82.203-85.227 127.5-199.42 126.08-317.82-1.4219-118.4-49.457-231.47-133.69-314.69-84.23-83.223-197.87-129.89-316.28-129.89-118.41 0-232.05 46.672-316.28 129.89-84.23 83.223-132.27 196.29-133.69 314.69-1.4258 118.4 43.875 232.59 126.08 317.82zm323.55-662.67c92.082-0.039062 180.47 36.223 245.99 100.92 65.523 64.695 102.9 152.62 104.02 244.69 1.125 92.078-34.094 180.88-98.016 247.16l-2.1094 2.2227-249.89 279.89-249.89-279.89-2-2c-63.941-66.285-99.18-155.1-98.078-247.19s38.461-180.04 103.97-244.77c65.512-64.734 153.9-101.04 246-101.04z"/>
  <path d="m600 750c66.305 0 129.89-26.34 176.78-73.223 46.883-46.883 73.223-110.47 73.223-176.78s-26.34-129.89-73.223-176.78c-46.883-46.883-110.47-73.223-176.78-73.223s-129.89 26.34-176.78 73.223c-46.883 46.883-73.223 110.47-73.223 176.78 0.058594 66.285 26.418 129.84 73.289 176.71 46.871 46.871 110.43 73.23 176.71 73.289zm0-400c39.781 0 77.938 15.805 106.07 43.934s43.934 66.285 43.934 106.07-15.805 77.938-43.934 106.07-66.285 43.934-106.07 43.934-77.938-15.805-106.07-43.934-43.934-66.285-43.934-106.07c0.058594-39.766 15.883-77.883 44-106s66.234-43.941 106-44z"/>
 </g>
</svg>
