<?xml version="1.0" encoding="UTF-8"?>
<svg width="128pt" height="128pt" version="1.1" viewBox="0 0 128 128" xmlns="http://www.w3.org/2000/svg">
 <path d="m84.734 54.273c-1.1523-1.0234-7.9375-6.6562-21.375-7.4258v-12.414c-0.019531-1.5391-0.95703-2.9141-2.375-3.5-1.4219-0.58203-3.0547-0.26562-4.1523 0.80859l-27.137 26.879v0.003906c-1.4648 1.4922-1.4648 3.8828 0 5.375l27.137 27.137c1.0977 1.0742 2.7305 1.3945 4.1523 0.80859 1.418-0.58594 2.3555-1.9609 2.375-3.4961v-12.93h0.25781c6.1445 0 17.281 2.3047 26.238 17.281l1.6641 2.6875c0.66406 1.1484 1.875 1.875 3.1992 1.918h0.64062c1.5625-0.28906 2.7812-1.5078 3.0742-3.0703l0.64062-3.0703h-0.003907c1.9883-13.988-3.4414-28-14.336-36.992z"/>
</svg>
